<svg xmlns="http://www.w3.org/2000/svg" viewBox="0 0 64 64" role="img" aria-label="BidPilot">
  <defs>
    <linearGradient id="shell" x1="8" y1="4" x2="58" y2="62" gradientUnits="userSpaceOnUse">
      <stop offset="0" stop-color="#1B2330" />
      <stop offset="0.48" stop-color="#05070A" />
      <stop offset="1" stop-color="#0C1D14" />
    </linearGradient>
    <linearGradient id="compass" x1="19" y1="47" x2="51" y2="17" gradientUnits="userSpaceOnUse">
      <stop offset="0" stop-color="#A3E635" />
      <stop offset="0.48" stop-color="#5BE878" />
      <stop offset="1" stop-color="#2DD4BF" />
    </linearGradient>
    <linearGradient id="route" x1="17" y1="45" x2="49" y2="18" gradientUnits="userSpaceOnUse">
      <stop offset="0" stop-color="#A3E635" />
      <stop offset="0.52" stop-color="#7DD3FC" />
      <stop offset="1" stop-color="#2DD4BF" />
    </linearGradient>
    <radialGradient id="target" cx="0" cy="0" r="1" gradientUnits="userSpaceOnUse" gradientTransform="translate(47.5 18.5) rotate(94.2) scale(13.5)">
      <stop offset="0" stop-color="#F8FAFC" />
      <stop offset="0.42" stop-color="#A3E635" />
      <stop offset="1" stop-color="#2DD4BF" stop-opacity="0" />
    </radialGradient>
  </defs>
  <rect x="3.5" y="3.5" width="57" height="57" rx="18" fill="url(#shell)" />
  <rect x="4.25" y="4.25" width="55.5" height="55.5" rx="17.25" fill="none" stroke="#fff" stroke-opacity="0.12" stroke-width="1.5" />
  <path d="M14 21H50M14 32H50M14 43H50M22 13V51M33 13V51M44 13V51" fill="none" stroke="#F8FAFC" stroke-opacity="0.055" stroke-width="1" />
  <path d="M15.4 47.1C24.1 36.8 28.1 39.3 34.2 30.4C38.7 23.8 42.6 20 49.4 16.4" fill="none" stroke="url(#route)" stroke-width="3" stroke-linecap="round" stroke-linejoin="round" />
  <circle cx="47.7" cy="18.3" r="13" fill="url(#target)" opacity="0.6" />
  <circle cx="47.7" cy="18.3" r="7.7" fill="none" stroke="#F8FAFC" stroke-opacity="0.24" stroke-width="1.3" />
  <circle cx="47.7" cy="18.3" r="3.2" fill="#F8FAFC" fill-opacity="0.92" />
  <path d="M19.5 48.5L30.3 16.8C30.8 15.2 33 15.1 33.7 16.6L39.8 30.9L50.6 19.3C51.8 18 53.8 19.3 53.2 21L42.3 49C41.7 50.7 39.4 50.9 38.6 49.3L32.3 36.9L21.8 50.4C20.7 51.8 18.9 50.1 19.5 48.5Z" fill="url(#compass)" />
  <path d="M30.9 18.3L32.3 36.9M39.8 30.9L32.3 36.9M42.2 48.6L39.8 30.9" fill="none" stroke="#03120B" stroke-opacity="0.38" stroke-width="2" stroke-linecap="round" stroke-linejoin="round" />
  <circle cx="20.5" cy="46.2" r="2.6" fill="#05070A" stroke="#A3E635" stroke-width="1.8" />
  <circle cx="34.2" cy="30.4" r="2.6" fill="#05070A" stroke="#7DD3FC" stroke-width="1.8" />
</svg>
